<svg xmlns="http://www.w3.org/2000/svg" xmlns:xlink="http://www.w3.org/1999/xlink" width="2000" zoomAndPan="magnify" viewBox="0 0 1500 562.499983" height="750" preserveAspectRatio="xMidYMid meet" version="1.0"><defs><g/><clipPath id="bdfc3f4ec1"><path d="M 0.667969 0 L 1499.332031 0 L 1499.332031 562 L 0.667969 562 Z M 0.667969 0 " clip-rule="nonzero"/></clipPath><clipPath id="4922ba630e"><path d="M 11.585938 43.742188 L 434.804688 43.742188 L 434.804688 463.679688 L 11.585938 463.679688 Z M 11.585938 43.742188 " clip-rule="nonzero"/></clipPath><clipPath id="44b1499a59"><path d="M 28.824219 43.742188 L 417.375 43.742188 C 426.890625 43.742188 434.609375 51.460938 434.609375 60.976562 L 434.609375 446.445312 C 434.609375 455.964844 426.890625 463.679688 417.375 463.679688 L 28.824219 463.679688 C 19.304688 463.679688 11.585938 455.964844 11.585938 446.445312 L 11.585938 60.976562 C 11.585938 51.460938 19.304688 43.742188 28.824219 43.742188 Z M 28.824219 43.742188 " clip-rule="nonzero"/></clipPath></defs><g clip-path="url(#bdfc3f4ec1)"><path fill="#ffffff" d="M 0.667969 0 L 1499.332031 0 L 1499.332031 562 L 0.667969 562 Z M 0.667969 0 " fill-opacity="1" fill-rule="nonzero"/><path fill="#436850" d="M 0.667969 0 L 1499.332031 0 L 1499.332031 562 L 0.667969 562 Z M 0.667969 0 " fill-opacity="1" fill-rule="nonzero"/></g><g clip-path="url(#4922ba630e)"><g clip-path="url(#44b1499a59)"><path fill="#fbfada" d="M 11.585938 43.742188 L 434.804688 43.742188 L 434.804688 463.679688 L 11.585938 463.679688 Z M 11.585938 43.742188 " fill-opacity="1" fill-rule="nonzero"/></g></g><g fill="#436850" fill-opacity="1"><g transform="translate(86.492238, 344.608143)"><g><path d="M 5.28125 -22.515625 L 18.65625 -24.4375 L 75.640625 -187.28125 L 114.09375 -187.28125 L 170.6875 -24.4375 L 184.078125 -22.515625 L 184.078125 0 L 120.265625 0 L 120.265625 -22.515625 L 133.265625 -24.828125 L 125.03125 -50.546875 L 64.3125 -50.546875 L 56.078125 -24.828125 L 69.078125 -22.515625 L 69.078125 0 L 5.28125 0 Z M 73.1875 -78.203125 L 116.15625 -78.203125 L 95.0625 -144.203125 L 94.28125 -144.203125 Z M 73.1875 -78.203125 "/></g></g><g transform="translate(275.708341, 344.608143)"><g><path d="M 4.109375 -178.03125 L 4.109375 -200.671875 L 61.75 -200.671875 L 61.75 -26.375 L 79.875 -22.515625 L 79.875 0 L 6.046875 0 L 6.046875 -22.515625 L 24.1875 -26.375 L 24.1875 -174.171875 Z M 4.109375 -178.03125 "/></g></g></g><g fill="#fbfada" fill-opacity="1"><g transform="translate(462.554656, 344.608109)"><g><path d="M 82.578125 -187.28125 L 82.578125 -164.65625 L 62.515625 -160.796875 L 62.515625 -63.03125 C 62.515625 -50.675781 65.835938 -41.429688 72.484375 -35.296875 C 79.128906 -29.171875 88.238281 -26.109375 99.8125 -26.109375 C 111.5625 -26.109375 120.78125 -29.148438 127.46875 -35.234375 C 134.15625 -41.328125 137.5 -50.59375 137.5 -63.03125 L 137.5 -160.796875 L 117.5625 -164.65625 L 117.5625 -187.28125 L 195.140625 -187.28125 L 195.140625 -164.65625 L 175.0625 -160.796875 L 175.0625 -63.03125 C 175.0625 -42.019531 168.132812 -25.8125 154.28125 -14.40625 C 140.4375 -3 122.28125 2.703125 99.8125 2.703125 C 77.4375 2.703125 59.363281 -3 45.59375 -14.40625 C 31.832031 -25.8125 24.953125 -42.019531 24.953125 -63.03125 L 24.953125 -160.796875 L 5.015625 -164.65625 L 5.015625 -187.28125 Z M 82.578125 -187.28125 "/></g></g><g transform="translate(661.546709, 344.608109)"><g><path d="M 89.40625 -65.609375 L 16.84375 -65.609375 L 16.84375 -94.546875 L 89.40625 -94.546875 Z M 89.40625 -65.609375 "/></g></g><g transform="translate(766.38092, 344.608109)"><g><path d="M 172.109375 -187.28125 L 172.109375 -137.375 L 143.296875 -137.375 L 141.75 -158.34375 L 107.28125 -158.34375 L 107.28125 -26.375 L 127.34375 -22.515625 L 127.34375 0 L 49.65625 0 L 49.65625 -22.515625 L 69.71875 -26.375 L 69.71875 -158.34375 L 35.375 -158.34375 L 33.828125 -137.375 L 5.140625 -137.375 L 5.140625 -187.28125 Z M 172.109375 -187.28125 "/></g></g><g transform="translate(943.505715, 344.608109)"><g><path d="M 128.109375 -82.328125 L 64.703125 -82.328125 L 64.703125 -28.8125 L 125.15625 -28.8125 L 126.828125 -51.203125 L 155.390625 -51.203125 L 155.390625 0 L 7.203125 0 L 7.203125 -22.515625 L 27.140625 -26.375 L 27.140625 -160.796875 L 7.203125 -164.65625 L 7.203125 -187.28125 L 155.125 -187.28125 L 155.125 -135.96875 L 126.3125 -135.96875 L 124.640625 -158.34375 L 64.703125 -158.34375 L 64.703125 -111.265625 L 128.109375 -111.265625 Z M 128.109375 -82.328125 "/></g></g><g transform="translate(1111.754978, 344.608109)"><g><path d="M 160.65625 -124.125 L 132.75 -124.125 L 128.890625 -149.078125 C 125.203125 -152.765625 120.546875 -155.679688 114.921875 -157.828125 C 109.304688 -159.972656 102.6875 -161.046875 95.0625 -161.046875 C 78.769531 -161.046875 66.226562 -155.128906 57.4375 -143.296875 C 48.644531 -131.460938 44.25 -116.023438 44.25 -96.984375 L 44.25 -90.421875 C 44.25 -71.390625 48.617188 -55.910156 57.359375 -43.984375 C 66.109375 -32.066406 78.460938 -26.109375 94.421875 -26.109375 C 101.796875 -26.109375 108.546875 -27.179688 114.671875 -29.328125 C 120.804688 -31.472656 125.546875 -34.390625 128.890625 -38.078125 L 132.75 -63.03125 L 160.65625 -63.03125 L 160.65625 -25.984375 C 153.113281 -17.234375 143.488281 -10.265625 131.78125 -5.078125 C 120.070312 0.109375 106.972656 2.703125 92.484375 2.703125 C 67.359375 2.703125 46.773438 -6 30.734375 -23.40625 C 14.703125 -40.8125 6.6875 -63.148438 6.6875 -90.421875 L 6.6875 -96.734375 C 6.6875 -123.910156 14.660156 -146.242188 30.609375 -163.734375 C 46.566406 -181.234375 67.191406 -189.984375 92.484375 -189.984375 C 106.972656 -189.984375 120.050781 -187.347656 131.71875 -182.078125 C 143.382812 -176.804688 153.03125 -169.835938 160.65625 -161.171875 Z M 160.65625 -124.125 "/></g></g><g transform="translate(1282.448227, 344.608109)"><g><path d="M 7.203125 -164.65625 L 7.203125 -187.28125 L 84.765625 -187.28125 L 84.765625 -164.65625 L 64.703125 -160.796875 L 64.703125 -106.765625 L 141.109375 -106.765625 L 141.109375 -160.796875 L 121.046875 -164.65625 L 121.046875 -187.28125 L 198.609375 -187.28125 L 198.609375 -164.65625 L 178.546875 -160.796875 L 178.546875 -26.375 L 198.609375 -22.515625 L 198.609375 0 L 121.046875 0 L 121.046875 -22.515625 L 141.109375 -26.375 L 141.109375 -77.828125 L 64.703125 -77.828125 L 64.703125 -26.375 L 84.765625 -22.515625 L 84.765625 0 L 7.203125 0 L 7.203125 -22.515625 L 27.140625 -26.375 L 27.140625 -160.796875 Z M 7.203125 -164.65625 "/></g></g></g><g fill="#436850" fill-opacity="1"><g transform="translate(245.788786, 114.595377)"><g><path d="M 1.640625 0 L 1.640625 -4.28125 L 12.203125 -15.609375 C 13.722656 -17.359375 14.804688 -18.832031 15.453125 -20.03125 C 16.097656 -21.238281 16.421875 -22.359375 16.421875 -23.390625 C 16.421875 -24.765625 16.050781 -25.890625 15.3125 -26.765625 C 14.570312 -27.640625 13.519531 -28.078125 12.15625 -28.078125 C 10.644531 -28.078125 9.492188 -27.566406 8.703125 -26.546875 C 7.921875 -25.523438 7.53125 -24.160156 7.53125 -22.453125 L 1.171875 -22.453125 L 1.125 -22.59375 C 1.050781 -25.53125 2.019531 -28.019531 4.03125 -30.0625 C 6.039062 -32.101562 8.75 -33.125 12.15625 -33.125 C 15.519531 -33.125 18.164062 -32.25 20.09375 -30.5 C 22.019531 -28.75 22.984375 -26.414062 22.984375 -23.5 C 22.984375 -21.53125 22.441406 -19.707031 21.359375 -18.03125 C 20.273438 -16.351562 18.476562 -14.171875 15.96875 -11.484375 L 10.15625 -5.140625 L 10.203125 -5.03125 L 18.6875 -5.03125 L 18.953125 -8.25 L 23.9375 -8.25 L 23.9375 0 Z M 1.640625 0 "/></g></g></g><g fill="#436850" fill-opacity="1"><g transform="translate(271.156816, 114.595377)"><g><path d="M 15.140625 -33.125 C 16.367188 -33.125 17.5 -33.007812 18.53125 -32.78125 C 19.570312 -32.550781 20.617188 -32.210938 21.671875 -31.765625 L 20.53125 -26.984375 C 19.582031 -27.316406 18.710938 -27.566406 17.921875 -27.734375 C 17.128906 -27.910156 16.21875 -28 15.1875 -28 C 13.238281 -28 11.675781 -27.285156 10.5 -25.859375 C 9.332031 -24.441406 8.738281 -22.347656 8.71875 -19.578125 L 8.796875 -19.46875 C 9.523438 -20.226562 10.453125 -20.828125 11.578125 -21.265625 C 12.710938 -21.703125 13.972656 -21.921875 15.359375 -21.921875 C 18.273438 -21.921875 20.5625 -20.882812 22.21875 -18.8125 C 23.882812 -16.738281 24.71875 -14.09375 24.71875 -10.875 C 24.71875 -7.582031 23.691406 -4.867188 21.640625 -2.734375 C 19.597656 -0.597656 16.953125 0.46875 13.703125 0.46875 C 10.265625 0.46875 7.460938 -0.695312 5.296875 -3.03125 C 3.128906 -5.375 2.046875 -8.617188 2.046875 -12.765625 L 2.046875 -18.5 C 2.046875 -23.125 3.265625 -26.71875 5.703125 -29.28125 C 8.148438 -31.84375 11.296875 -33.125 15.140625 -33.125 Z M 13.640625 -16.953125 C 12.429688 -16.953125 11.398438 -16.757812 10.546875 -16.375 C 9.691406 -15.988281 9.03125 -15.457031 8.5625 -14.78125 L 8.5625 -12.609375 C 8.5625 -10.015625 9.03125 -8.019531 9.96875 -6.625 C 10.90625 -5.238281 12.148438 -4.546875 13.703125 -4.546875 C 15.046875 -4.546875 16.125 -5.160156 16.9375 -6.390625 C 17.757812 -7.628906 18.171875 -9.125 18.171875 -10.875 C 18.171875 -12.6875 17.757812 -14.148438 16.9375 -15.265625 C 16.113281 -16.390625 15.015625 -16.953125 13.640625 -16.953125 Z M 13.640625 -16.953125 "/></g></g></g><g fill="#436850" fill-opacity="1"><g transform="translate(296.793765, 114.595377)"><g><path d="M 9.421875 0 L 2.890625 0 L 2.890625 -5.75 L 9.421875 -5.75 Z M 9.421875 0 "/></g></g></g><g fill="#436850" fill-opacity="1"><g transform="translate(308.491743, 114.595377)"><g><path d="M 11.234375 -4.546875 C 12.984375 -4.546875 14.394531 -5.210938 15.46875 -6.546875 C 16.550781 -7.890625 17.09375 -9.898438 17.09375 -12.578125 L 17.09375 -13.078125 C 16.363281 -12.128906 15.488281 -11.410156 14.46875 -10.921875 C 13.445312 -10.441406 12.351562 -10.203125 11.1875 -10.203125 C 8.132812 -10.203125 5.738281 -11.195312 4 -13.1875 C 2.269531 -15.1875 1.40625 -17.945312 1.40625 -21.46875 C 1.40625 -24.769531 2.441406 -27.535156 4.515625 -29.765625 C 6.585938 -32.003906 9.207031 -33.125 12.375 -33.125 C 15.71875 -33.125 18.425781 -31.976562 20.5 -29.6875 C 22.582031 -27.394531 23.625 -24.171875 23.625 -20.015625 L 23.625 -12.921875 C 23.625 -8.691406 22.46875 -5.398438 20.15625 -3.046875 C 17.84375 -0.703125 14.867188 0.46875 11.234375 0.46875 C 10.097656 0.46875 8.925781 0.351562 7.71875 0.125 C 6.519531 -0.101562 5.410156 -0.441406 4.390625 -0.890625 L 5.140625 -5.625 C 6.140625 -5.25 7.109375 -4.972656 8.046875 -4.796875 C 8.992188 -4.628906 10.054688 -4.546875 11.234375 -4.546875 Z M 12.296875 -15 C 13.378906 -15 14.328125 -15.203125 15.140625 -15.609375 C 15.960938 -16.023438 16.613281 -16.578125 17.09375 -17.265625 L 17.09375 -20.765625 C 17.09375 -23.160156 16.671875 -24.976562 15.828125 -26.21875 C 14.992188 -27.457031 13.859375 -28.078125 12.421875 -28.078125 C 11.109375 -28.078125 10.035156 -27.429688 9.203125 -26.140625 C 8.378906 -24.847656 7.96875 -23.289062 7.96875 -21.46875 C 7.96875 -19.488281 8.335938 -17.914062 9.078125 -16.75 C 9.816406 -15.582031 10.890625 -15 12.296875 -15 Z M 12.296875 -15 "/></g></g></g><g fill="#436850" fill-opacity="1"><g transform="translate(334.061462, 114.595377)"><g><path d="M 23.015625 -24 C 23.015625 -22.375 22.578125 -20.929688 21.703125 -19.671875 C 20.835938 -18.410156 19.648438 -17.429688 18.140625 -16.734375 C 19.878906 -16.003906 21.25 -14.957031 22.25 -13.59375 C 23.25 -12.226562 23.75 -10.671875 23.75 -8.921875 C 23.75 -5.898438 22.722656 -3.578125 20.671875 -1.953125 C 18.628906 -0.335938 15.957031 0.46875 12.65625 0.46875 C 9.332031 0.46875 6.640625 -0.335938 4.578125 -1.953125 C 2.523438 -3.578125 1.5 -5.898438 1.5 -8.921875 C 1.5 -10.691406 1.992188 -12.253906 2.984375 -13.609375 C 3.984375 -14.960938 5.351562 -16.003906 7.09375 -16.734375 C 5.5625 -17.429688 4.367188 -18.410156 3.515625 -19.671875 C 2.671875 -20.929688 2.25 -22.375 2.25 -24 C 2.25 -26.90625 3.195312 -29.148438 5.09375 -30.734375 C 6.988281 -32.328125 9.492188 -33.125 12.609375 -33.125 C 15.710938 -33.125 18.222656 -32.328125 20.140625 -30.734375 C 22.054688 -29.148438 23.015625 -26.90625 23.015625 -24 Z M 17.234375 -9.375 C 17.234375 -10.84375 16.800781 -12.015625 15.9375 -12.890625 C 15.070312 -13.773438 13.960938 -14.21875 12.609375 -14.21875 C 11.242188 -14.21875 10.140625 -13.773438 9.296875 -12.890625 C 8.460938 -12.015625 8.046875 -10.84375 8.046875 -9.375 C 8.046875 -7.882812 8.460938 -6.707031 9.296875 -5.84375 C 10.140625 -4.976562 11.257812 -4.546875 12.65625 -4.546875 C 14.007812 -4.546875 15.109375 -4.976562 15.953125 -5.84375 C 16.804688 -6.71875 17.234375 -7.894531 17.234375 -9.375 Z M 16.46875 -23.703125 C 16.46875 -25.023438 16.117188 -26.082031 15.421875 -26.875 C 14.722656 -27.675781 13.785156 -28.078125 12.609375 -28.078125 C 11.410156 -28.078125 10.476562 -27.6875 9.8125 -26.90625 C 9.144531 -26.125 8.8125 -25.054688 8.8125 -23.703125 C 8.8125 -22.347656 9.144531 -21.269531 9.8125 -20.46875 C 10.488281 -19.664062 11.4375 -19.265625 12.65625 -19.265625 C 13.832031 -19.265625 14.757812 -19.664062 15.4375 -20.46875 C 16.125 -21.269531 16.46875 -22.347656 16.46875 -23.703125 Z M 16.46875 -23.703125 "/></g></g></g><g fill="#436850" fill-opacity="1"><g transform="translate(359.048524, 114.595377)"><g><path d="M 1.640625 0 L 1.640625 -4.28125 L 12.203125 -15.609375 C 13.722656 -17.359375 14.804688 -18.832031 15.453125 -20.03125 C 16.097656 -21.238281 16.421875 -22.359375 16.421875 -23.390625 C 16.421875 -24.765625 16.050781 -25.890625 15.3125 -26.765625 C 14.570312 -27.640625 13.519531 -28.078125 12.15625 -28.078125 C 10.644531 -28.078125 9.492188 -27.566406 8.703125 -26.546875 C 7.921875 -25.523438 7.53125 -24.160156 7.53125 -22.453125 L 1.171875 -22.453125 L 1.125 -22.59375 C 1.050781 -25.53125 2.019531 -28.019531 4.03125 -30.0625 C 6.039062 -32.101562 8.75 -33.125 12.15625 -33.125 C 15.519531 -33.125 18.164062 -32.25 20.09375 -30.5 C 22.019531 -28.75 22.984375 -26.414062 22.984375 -23.5 C 22.984375 -21.53125 22.441406 -19.707031 21.359375 -18.03125 C 20.273438 -16.351562 18.476562 -14.171875 15.96875 -11.484375 L 10.15625 -5.140625 L 10.203125 -5.03125 L 18.6875 -5.03125 L 18.953125 -8.25 L 23.9375 -8.25 L 23.9375 0 Z M 1.640625 0 "/></g></g></g><g fill="#fbfada" fill-opacity="1"><g transform="translate(481.639471, 507.341801)"><g><path d="M 15.78125 -32.671875 C 19.625 -32.671875 22.617188 -31.921875 24.765625 -30.421875 C 26.921875 -28.929688 28 -26.695312 28 -23.71875 C 28 -22.207031 27.597656 -20.859375 26.796875 -19.671875 C 26.003906 -18.484375 24.84375 -17.585938 23.3125 -16.984375 C 25.269531 -16.566406 26.738281 -15.671875 27.71875 -14.296875 C 28.695312 -12.921875 29.1875 -11.328125 29.1875 -9.515625 C 29.1875 -6.390625 28.15625 -4.019531 26.09375 -2.40625 C 24.03125 -0.800781 21.109375 0 17.328125 0 L 1.25 0 L 1.25 -3.921875 L 4.734375 -4.59375 L 4.734375 -28.046875 L 1.25 -28.71875 L 1.25 -32.671875 Z M 11.28125 -14.453125 L 11.28125 -5.03125 L 17.328125 -5.03125 C 19.054688 -5.03125 20.375 -5.40625 21.28125 -6.15625 C 22.195312 -6.914062 22.65625 -8.035156 22.65625 -9.515625 C 22.65625 -11.117188 22.265625 -12.34375 21.484375 -13.1875 C 20.710938 -14.03125 19.488281 -14.453125 17.8125 -14.453125 Z M 11.28125 -18.984375 L 16 -18.984375 C 17.75 -18.984375 19.09375 -19.34375 20.03125 -20.0625 C 20.976562 -20.78125 21.453125 -21.828125 21.453125 -23.203125 C 21.453125 -24.710938 20.972656 -25.828125 20.015625 -26.546875 C 19.066406 -27.265625 17.65625 -27.625 15.78125 -27.625 L 11.28125 -27.625 Z M 11.28125 -18.984375 "/></g></g></g><g fill="#fbfada" fill-opacity="1"><g transform="translate(512.01259, 507.341801)"><g><path d="M 18.40625 -3.078125 C 17.625 -1.941406 16.660156 -1.066406 15.515625 -0.453125 C 14.367188 0.160156 13.0625 0.46875 11.59375 0.46875 C 9.039062 0.46875 7.035156 -0.347656 5.578125 -1.984375 C 4.128906 -3.617188 3.40625 -6.164062 3.40625 -9.625 L 3.40625 -19.65625 L 0.734375 -20.328125 L 0.734375 -24.28125 L 9.96875 -24.28125 L 9.96875 -9.578125 C 9.96875 -7.816406 10.257812 -6.550781 10.84375 -5.78125 C 11.4375 -5.007812 12.316406 -4.625 13.484375 -4.625 C 14.515625 -4.625 15.40625 -4.789062 16.15625 -5.125 C 16.914062 -5.457031 17.535156 -5.941406 18.015625 -6.578125 L 18.015625 -19.65625 L 15.140625 -20.328125 L 15.140625 -24.28125 L 24.5625 -24.28125 L 24.5625 -4.59375 L 27.515625 -3.921875 L 27.515625 0 L 18.828125 0 Z M 18.40625 -3.078125 "/></g></g></g><g fill="#fbfada" fill-opacity="1"><g transform="translate(540.680866, 507.341801)"><g><path d="M 1.21875 -3.921875 L 4.375 -4.59375 L 4.375 -19.65625 L 0.875 -20.328125 L 0.875 -24.28125 L 10.921875 -24.28125 L 10.921875 -4.59375 L 14.0625 -3.921875 L 14.0625 0 L 1.21875 0 Z M 10.921875 -30.09375 L 4.375 -30.09375 L 4.375 -35 L 10.921875 -35 Z M 10.921875 -30.09375 "/></g></g></g><g fill="#fbfada" fill-opacity="1"><g transform="translate(555.486079, 507.341801)"><g><path d="M 0.71875 -31.046875 L 0.71875 -35 L 10.765625 -35 L 10.765625 -4.59375 L 13.9375 -3.921875 L 13.9375 0 L 1.046875 0 L 1.046875 -3.921875 L 4.21875 -4.59375 L 4.21875 -30.375 Z M 0.71875 -31.046875 "/></g></g></g><g fill="#fbfada" fill-opacity="1"><g transform="translate(570.134266, 507.341801)"><g><path d="M 17.203125 -2.96875 C 16.441406 -1.84375 15.539062 -0.988281 14.5 -0.40625 C 13.46875 0.175781 12.285156 0.46875 10.953125 0.46875 C 7.960938 0.46875 5.640625 -0.617188 3.984375 -2.796875 C 2.328125 -4.984375 1.5 -7.875 1.5 -11.46875 L 1.5 -11.9375 C 1.5 -15.769531 2.328125 -18.859375 3.984375 -21.203125 C 5.648438 -23.554688 7.988281 -24.734375 11 -24.734375 C 12.207031 -24.734375 13.296875 -24.46875 14.265625 -23.9375 C 15.242188 -23.40625 16.097656 -22.648438 16.828125 -21.671875 L 16.828125 -30.375 L 13.328125 -31.046875 L 13.328125 -35 L 23.375 -35 L 23.375 -4.59375 L 26.515625 -3.921875 L 26.515625 0 L 17.703125 0 Z M 8.0625 -11.46875 C 8.0625 -9.34375 8.414062 -7.671875 9.125 -6.453125 C 9.832031 -5.234375 10.992188 -4.625 12.609375 -4.625 C 13.566406 -4.625 14.394531 -4.816406 15.09375 -5.203125 C 15.800781 -5.585938 16.378906 -6.148438 16.828125 -6.890625 L 16.828125 -17.1875 C 16.378906 -17.96875 15.804688 -18.570312 15.109375 -19 C 14.410156 -19.425781 13.59375 -19.640625 12.65625 -19.640625 C 11.050781 -19.640625 9.882812 -18.925781 9.15625 -17.5 C 8.425781 -16.082031 8.0625 -14.226562 8.0625 -11.9375 Z M 8.0625 -11.46875 "/></g></g></g><g fill="#fbfada" fill-opacity="1"><g transform="translate(597.322021, 507.341801)"><g><path d="M 1.21875 -3.921875 L 4.375 -4.59375 L 4.375 -19.65625 L 0.875 -20.328125 L 0.875 -24.28125 L 10.921875 -24.28125 L 10.921875 -4.59375 L 14.0625 -3.921875 L 14.0625 0 L 1.21875 0 Z M 10.921875 -30.09375 L 4.375 -30.09375 L 4.375 -35 L 10.921875 -35 Z M 10.921875 -30.09375 "/></g></g></g><g fill="#fbfada" fill-opacity="1"><g transform="translate(612.127233, 507.341801)"><g><path d="M 1.046875 -3.921875 L 4.203125 -4.59375 L 4.203125 -19.65625 L 0.71875 -20.328125 L 0.71875 -24.28125 L 10.296875 -24.28125 L 10.59375 -20.796875 C 11.394531 -22.035156 12.382812 -23 13.5625 -23.6875 C 14.75 -24.382812 16.078125 -24.734375 17.546875 -24.734375 C 19.992188 -24.734375 21.90625 -23.960938 23.28125 -22.421875 C 24.664062 -20.878906 25.359375 -18.460938 25.359375 -15.171875 L 25.359375 -4.59375 L 28.5 -3.921875 L 28.5 0 L 15.96875 0 L 15.96875 -3.921875 L 18.78125 -4.59375 L 18.78125 -15.140625 C 18.78125 -16.773438 18.453125 -17.929688 17.796875 -18.609375 C 17.140625 -19.296875 16.144531 -19.640625 14.8125 -19.640625 C 13.9375 -19.640625 13.15625 -19.460938 12.46875 -19.109375 C 11.78125 -18.753906 11.207031 -18.253906 10.75 -17.609375 L 10.75 -4.59375 L 13.390625 -3.921875 L 13.390625 0 L 1.046875 0 Z M 1.046875 -3.921875 "/></g></g></g><g fill="#fbfada" fill-opacity="1"><g transform="translate(641.289016, 507.341801)"><g><path d="M 1.8125 -11.9375 C 1.8125 -15.769531 2.644531 -18.859375 4.3125 -21.203125 C 5.988281 -23.554688 8.328125 -24.734375 11.328125 -24.734375 C 12.691406 -24.734375 13.890625 -24.425781 14.921875 -23.8125 C 15.953125 -23.207031 16.832031 -22.34375 17.5625 -21.21875 L 18.046875 -24.28125 L 23.734375 -24.28125 L 23.734375 -0.71875 C 23.734375 2.476562 22.726562 5.03125 20.71875 6.9375 C 18.707031 8.851562 15.945312 9.8125 12.4375 9.8125 C 11.207031 9.8125 9.90625 9.640625 8.53125 9.296875 C 7.15625 8.960938 5.882812 8.503906 4.71875 7.921875 L 5.921875 3.328125 C 6.972656 3.773438 8.019531 4.128906 9.0625 4.390625 C 10.113281 4.648438 11.222656 4.78125 12.390625 4.78125 C 13.984375 4.78125 15.175781 4.289062 15.96875 3.3125 C 16.769531 2.34375 17.171875 0.992188 17.171875 -0.734375 L 17.171875 -2.328125 C 16.453125 -1.421875 15.601562 -0.726562 14.625 -0.25 C 13.65625 0.226562 12.539062 0.46875 11.28125 0.46875 C 8.3125 0.46875 5.988281 -0.625 4.3125 -2.8125 C 2.644531 -5.007812 1.8125 -7.894531 1.8125 -11.46875 Z M 8.375 -11.46875 C 8.375 -9.34375 8.734375 -7.671875 9.453125 -6.453125 C 10.171875 -5.234375 11.335938 -4.625 12.953125 -4.625 C 13.953125 -4.625 14.796875 -4.804688 15.484375 -5.171875 C 16.179688 -5.535156 16.742188 -6.070312 17.171875 -6.78125 L 17.171875 -17.328125 C 16.742188 -18.054688 16.179688 -18.625 15.484375 -19.03125 C 14.796875 -19.4375 13.960938 -19.640625 12.984375 -19.640625 C 11.390625 -19.640625 10.222656 -18.925781 9.484375 -17.5 C 8.742188 -16.082031 8.375 -14.226562 8.375 -11.9375 Z M 8.375 -11.46875 "/></g></g></g><g fill="#fbfada" fill-opacity="1"><g transform="translate(667.53462, 507.341801)"><g/></g></g><g fill="#fbfada" fill-opacity="1"><g transform="translate(678.795555, 507.341801)"><g><path d="M 30.015625 -32.671875 L 30.015625 -23.96875 L 25 -23.96875 L 24.734375 -27.625 L 18.71875 -27.625 L 18.71875 -4.59375 L 22.21875 -3.921875 L 22.21875 0 L 8.65625 0 L 8.65625 -3.921875 L 12.15625 -4.59375 L 12.15625 -27.625 L 6.171875 -27.625 L 5.90625 -23.96875 L 0.890625 -23.96875 L 0.890625 -32.671875 Z M 30.015625 -32.671875 "/></g></g></g><g fill="#fbfada" fill-opacity="1"><g transform="translate(709.684613, 507.341801)"><g><path d="M 1.40625 -12.359375 C 1.40625 -15.984375 2.421875 -18.953125 4.453125 -21.265625 C 6.484375 -23.578125 9.285156 -24.734375 12.859375 -24.734375 C 16.441406 -24.734375 19.25 -23.578125 21.28125 -21.265625 C 23.3125 -18.960938 24.328125 -15.992188 24.328125 -12.359375 L 24.328125 -11.890625 C 24.328125 -8.242188 23.3125 -5.269531 21.28125 -2.96875 C 19.25 -0.675781 16.457031 0.46875 12.90625 0.46875 C 9.300781 0.46875 6.484375 -0.675781 4.453125 -2.96875 C 2.421875 -5.269531 1.40625 -8.242188 1.40625 -11.890625 Z M 7.96875 -11.890625 C 7.96875 -9.679688 8.351562 -7.90625 9.125 -6.5625 C 9.90625 -5.226562 11.164062 -4.5625 12.90625 -4.5625 C 14.59375 -4.5625 15.828125 -5.234375 16.609375 -6.578125 C 17.398438 -7.921875 17.796875 -9.691406 17.796875 -11.890625 L 17.796875 -12.359375 C 17.796875 -14.515625 17.398438 -16.269531 16.609375 -17.625 C 15.816406 -18.988281 14.566406 -19.671875 12.859375 -19.671875 C 11.148438 -19.671875 9.90625 -18.988281 9.125 -17.625 C 8.351562 -16.269531 7.96875 -14.515625 7.96875 -12.359375 Z M 7.96875 -11.890625 "/></g></g></g><g fill="#fbfada" fill-opacity="1"><g transform="translate(735.43671, 507.341801)"><g><path d="M 0.65625 -20.328125 L 0.65625 -24.28125 L 10.234375 -24.28125 L 10.5 -21.0625 C 11.28125 -22.226562 12.253906 -23.128906 13.421875 -23.765625 C 14.597656 -24.410156 15.957031 -24.734375 17.5 -24.734375 C 19.050781 -24.734375 20.378906 -24.382812 21.484375 -23.6875 C 22.597656 -23 23.441406 -21.960938 24.015625 -20.578125 C 24.753906 -21.878906 25.722656 -22.894531 26.921875 -23.625 C 28.117188 -24.363281 29.523438 -24.734375 31.140625 -24.734375 C 33.535156 -24.734375 35.425781 -23.90625 36.8125 -22.25 C 38.195312 -20.59375 38.890625 -18.078125 38.890625 -14.703125 L 38.890625 -4.59375 L 42.046875 -3.921875 L 42.046875 0 L 29.5 0 L 29.5 -3.921875 L 32.328125 -4.59375 L 32.328125 -14.71875 C 32.328125 -16.5625 32.023438 -17.84375 31.421875 -18.5625 C 30.828125 -19.28125 29.941406 -19.640625 28.765625 -19.640625 C 27.835938 -19.640625 27.03125 -19.429688 26.34375 -19.015625 C 25.664062 -18.609375 25.128906 -18.035156 24.734375 -17.296875 C 24.734375 -17.015625 24.738281 -16.769531 24.75 -16.5625 C 24.757812 -16.363281 24.765625 -16.160156 24.765625 -15.953125 L 24.765625 -4.59375 L 27.421875 -3.921875 L 27.421875 0 L 15.59375 0 L 15.59375 -3.921875 L 18.234375 -4.59375 L 18.234375 -14.71875 C 18.234375 -16.507812 17.9375 -17.773438 17.34375 -18.515625 C 16.75 -19.265625 15.851562 -19.640625 14.65625 -19.640625 C 13.769531 -19.640625 12.992188 -19.46875 12.328125 -19.125 C 11.660156 -18.789062 11.113281 -18.316406 10.6875 -17.703125 L 10.6875 -4.59375 L 13.5 -3.921875 L 13.5 0 L 0.984375 0 L 0.984375 -3.921875 L 4.15625 -4.59375 L 4.15625 -19.65625 Z M 0.65625 -20.328125 "/></g></g></g><g fill="#fbfada" fill-opacity="1"><g transform="translate(778.169938, 507.341801)"><g><path d="M 1.40625 -12.359375 C 1.40625 -15.984375 2.421875 -18.953125 4.453125 -21.265625 C 6.484375 -23.578125 9.285156 -24.734375 12.859375 -24.734375 C 16.441406 -24.734375 19.25 -23.578125 21.28125 -21.265625 C 23.3125 -18.960938 24.328125 -15.992188 24.328125 -12.359375 L 24.328125 -11.890625 C 24.328125 -8.242188 23.3125 -5.269531 21.28125 -2.96875 C 19.25 -0.675781 16.457031 0.46875 12.90625 0.46875 C 9.300781 0.46875 6.484375 -0.675781 4.453125 -2.96875 C 2.421875 -5.269531 1.40625 -8.242188 1.40625 -11.890625 Z M 7.96875 -11.890625 C 7.96875 -9.679688 8.351562 -7.90625 9.125 -6.5625 C 9.90625 -5.226562 11.164062 -4.5625 12.90625 -4.5625 C 14.59375 -4.5625 15.828125 -5.234375 16.609375 -6.578125 C 17.398438 -7.921875 17.796875 -9.691406 17.796875 -11.890625 L 17.796875 -12.359375 C 17.796875 -14.515625 17.398438 -16.269531 16.609375 -17.625 C 15.816406 -18.988281 14.566406 -19.671875 12.859375 -19.671875 C 11.148438 -19.671875 9.90625 -18.988281 9.125 -17.625 C 8.351562 -16.269531 7.96875 -14.515625 7.96875 -12.359375 Z M 7.96875 -11.890625 "/></g></g></g><g fill="#fbfada" fill-opacity="1"><g transform="translate(803.922035, 507.341801)"><g><path d="M 1.90625 -3.921875 L 5.046875 -4.59375 L 5.046875 -19.65625 L 1.578125 -20.328125 L 1.578125 -24.28125 L 11.15625 -24.28125 L 11.4375 -20.734375 C 12.007812 -21.992188 12.742188 -22.972656 13.640625 -23.671875 C 14.535156 -24.378906 15.578125 -24.734375 16.765625 -24.734375 C 17.109375 -24.734375 17.46875 -24.703125 17.84375 -24.640625 C 18.226562 -24.585938 18.546875 -24.523438 18.796875 -24.453125 L 18.109375 -18.484375 L 15.421875 -18.5625 C 14.460938 -18.5625 13.664062 -18.375 13.03125 -18 C 12.40625 -17.625 11.925781 -17.09375 11.59375 -16.40625 L 11.59375 -4.59375 L 14.734375 -3.921875 L 14.734375 0 L 1.90625 0 Z M 1.90625 -3.921875 "/></g></g></g><g fill="#fbfada" fill-opacity="1"><g transform="translate(823.25854, 507.341801)"><g><path d="M 1.90625 -3.921875 L 5.046875 -4.59375 L 5.046875 -19.65625 L 1.578125 -20.328125 L 1.578125 -24.28125 L 11.15625 -24.28125 L 11.4375 -20.734375 C 12.007812 -21.992188 12.742188 -22.972656 13.640625 -23.671875 C 14.535156 -24.378906 15.578125 -24.734375 16.765625 -24.734375 C 17.109375 -24.734375 17.46875 -24.703125 17.84375 -24.640625 C 18.226562 -24.585938 18.546875 -24.523438 18.796875 -24.453125 L 18.109375 -18.484375 L 15.421875 -18.5625 C 14.460938 -18.5625 13.664062 -18.375 13.03125 -18 C 12.40625 -17.625 11.925781 -17.09375 11.59375 -16.40625 L 11.59375 -4.59375 L 14.734375 -3.921875 L 14.734375 0 L 1.90625 0 Z M 1.90625 -3.921875 "/></g></g></g><g fill="#fbfada" fill-opacity="1"><g transform="translate(842.595045, 507.341801)"><g><path d="M 1.40625 -12.359375 C 1.40625 -15.984375 2.421875 -18.953125 4.453125 -21.265625 C 6.484375 -23.578125 9.285156 -24.734375 12.859375 -24.734375 C 16.441406 -24.734375 19.25 -23.578125 21.28125 -21.265625 C 23.3125 -18.960938 24.328125 -15.992188 24.328125 -12.359375 L 24.328125 -11.890625 C 24.328125 -8.242188 23.3125 -5.269531 21.28125 -2.96875 C 19.25 -0.675781 16.457031 0.46875 12.90625 0.46875 C 9.300781 0.46875 6.484375 -0.675781 4.453125 -2.96875 C 2.421875 -5.269531 1.40625 -8.242188 1.40625 -11.890625 Z M 7.96875 -11.890625 C 7.96875 -9.679688 8.351562 -7.90625 9.125 -6.5625 C 9.90625 -5.226562 11.164062 -4.5625 12.90625 -4.5625 C 14.59375 -4.5625 15.828125 -5.234375 16.609375 -6.578125 C 17.398438 -7.921875 17.796875 -9.691406 17.796875 -11.890625 L 17.796875 -12.359375 C 17.796875 -14.515625 17.398438 -16.269531 16.609375 -17.625 C 15.816406 -18.988281 14.566406 -19.671875 12.859375 -19.671875 C 11.148438 -19.671875 9.90625 -18.988281 9.125 -17.625 C 8.351562 -16.269531 7.96875 -14.515625 7.96875 -12.359375 Z M 7.96875 -11.890625 "/></g></g></g><g fill="#fbfada" fill-opacity="1"><g transform="translate(868.347143, 507.341801)"><g><path d="M 36.015625 -20.328125 L 33.5625 -20.015625 L 28.5 0 L 23.015625 0 L 18.515625 -14.453125 L 18.375 -14.453125 L 13.859375 0 L 8.421875 0 L 3.328125 -20.015625 L 0.875 -20.328125 L 0.875 -24.28125 L 11.875 -24.28125 L 11.875 -20.328125 L 9.296875 -19.828125 L 11.578125 -8.734375 L 11.71875 -8.734375 L 16.25 -24.28125 L 20.640625 -24.28125 L 25.21875 -8.6875 L 25.359375 -8.6875 L 27.625 -19.8125 L 25.015625 -20.328125 L 25.015625 -24.28125 L 36.015625 -24.28125 Z M 36.015625 -20.328125 "/></g></g></g><g fill="#fbfada" fill-opacity="1"><g transform="translate(905.180718, 507.341801)"><g><path d="M 8.96875 -0.875 C 8.96875 0.644531 8.535156 2.257812 7.671875 3.96875 C 6.816406 5.675781 5.769531 7.078125 4.53125 8.171875 L 1.296875 6.421875 C 1.878906 5.367188 2.328125 4.285156 2.640625 3.171875 C 2.960938 2.054688 3.125 0.8125 3.125 -0.5625 L 3.125 -5.453125 L 9 -5.453125 Z M 8.96875 -0.875 "/></g></g></g><g fill="#fbfada" fill-opacity="1"><g transform="translate(916.464085, 507.341801)"><g/></g></g><g fill="#fbfada" fill-opacity="1"><g transform="translate(927.725019, 507.341801)"><g><path d="M 30.015625 -32.671875 L 30.015625 -23.96875 L 25 -23.96875 L 24.734375 -27.625 L 18.71875 -27.625 L 18.71875 -4.59375 L 22.21875 -3.921875 L 22.21875 0 L 8.65625 0 L 8.65625 -3.921875 L 12.15625 -4.59375 L 12.15625 -27.625 L 6.171875 -27.625 L 5.90625 -23.96875 L 0.890625 -23.96875 L 0.890625 -32.671875 Z M 30.015625 -32.671875 "/></g></g></g><g fill="#fbfada" fill-opacity="1"><g transform="translate(958.614103, 507.341801)"><g><path d="M 1.40625 -12.359375 C 1.40625 -15.984375 2.421875 -18.953125 4.453125 -21.265625 C 6.484375 -23.578125 9.285156 -24.734375 12.859375 -24.734375 C 16.441406 -24.734375 19.25 -23.578125 21.28125 -21.265625 C 23.3125 -18.960938 24.328125 -15.992188 24.328125 -12.359375 L 24.328125 -11.890625 C 24.328125 -8.242188 23.3125 -5.269531 21.28125 -2.96875 C 19.25 -0.675781 16.457031 0.46875 12.90625 0.46875 C 9.300781 0.46875 6.484375 -0.675781 4.453125 -2.96875 C 2.421875 -5.269531 1.40625 -8.242188 1.40625 -11.890625 Z M 7.96875 -11.890625 C 7.96875 -9.679688 8.351562 -7.90625 9.125 -6.5625 C 9.90625 -5.226562 11.164062 -4.5625 12.90625 -4.5625 C 14.59375 -4.5625 15.828125 -5.234375 16.609375 -6.578125 C 17.398438 -7.921875 17.796875 -9.691406 17.796875 -11.890625 L 17.796875 -12.359375 C 17.796875 -14.515625 17.398438 -16.269531 16.609375 -17.625 C 15.816406 -18.988281 14.566406 -19.671875 12.859375 -19.671875 C 11.148438 -19.671875 9.90625 -18.988281 9.125 -17.625 C 8.351562 -16.269531 7.96875 -14.515625 7.96875 -12.359375 Z M 7.96875 -11.890625 "/></g></g></g><g fill="#fbfada" fill-opacity="1"><g transform="translate(984.366201, 507.341801)"><g><path d="M 17.203125 -2.96875 C 16.441406 -1.84375 15.539062 -0.988281 14.5 -0.40625 C 13.46875 0.175781 12.285156 0.46875 10.953125 0.46875 C 7.960938 0.46875 5.640625 -0.617188 3.984375 -2.796875 C 2.328125 -4.984375 1.5 -7.875 1.5 -11.46875 L 1.5 -11.9375 C 1.5 -15.769531 2.328125 -18.859375 3.984375 -21.203125 C 5.648438 -23.554688 7.988281 -24.734375 11 -24.734375 C 12.207031 -24.734375 13.296875 -24.46875 14.265625 -23.9375 C 15.242188 -23.40625 16.097656 -22.648438 16.828125 -21.671875 L 16.828125 -30.375 L 13.328125 -31.046875 L 13.328125 -35 L 23.375 -35 L 23.375 -4.59375 L 26.515625 -3.921875 L 26.515625 0 L 17.703125 0 Z M 8.0625 -11.46875 C 8.0625 -9.34375 8.414062 -7.671875 9.125 -6.453125 C 9.832031 -5.234375 10.992188 -4.625 12.609375 -4.625 C 13.566406 -4.625 14.394531 -4.816406 15.09375 -5.203125 C 15.800781 -5.585938 16.378906 -6.148438 16.828125 -6.890625 L 16.828125 -17.1875 C 16.378906 -17.96875 15.804688 -18.570312 15.109375 -19 C 14.410156 -19.425781 13.59375 -19.640625 12.65625 -19.640625 C 11.050781 -19.640625 9.882812 -18.925781 9.15625 -17.5 C 8.425781 -16.082031 8.0625 -14.226562 8.0625 -11.9375 Z M 8.0625 -11.46875 "/></g></g></g><g fill="#fbfada" fill-opacity="1"><g transform="translate(1011.553955, 507.341801)"><g><path d="M 16.875 0 C 16.695312 -0.40625 16.539062 -0.820312 16.40625 -1.25 C 16.269531 -1.675781 16.164062 -2.101562 16.09375 -2.53125 C 15.3125 -1.632812 14.363281 -0.910156 13.25 -0.359375 C 12.132812 0.191406 10.859375 0.46875 9.421875 0.46875 C 7.046875 0.46875 5.15625 -0.175781 3.75 -1.46875 C 2.351562 -2.757812 1.65625 -4.519531 1.65625 -6.75 C 1.65625 -9.03125 2.566406 -10.789062 4.390625 -12.03125 C 6.222656 -13.269531 8.90625 -13.890625 12.4375 -13.890625 L 15.78125 -13.890625 L 15.78125 -16.265625 C 15.78125 -17.429688 15.441406 -18.335938 14.765625 -18.984375 C 14.085938 -19.628906 13.09375 -19.953125 11.78125 -19.953125 C 11.03125 -19.953125 10.363281 -19.863281 9.78125 -19.6875 C 9.195312 -19.519531 8.726562 -19.316406 8.375 -19.078125 L 7.9375 -16.46875 L 3 -16.46875 L 3.03125 -21.859375 C 4.226562 -22.660156 5.597656 -23.335938 7.140625 -23.890625 C 8.691406 -24.453125 10.378906 -24.734375 12.203125 -24.734375 C 15.210938 -24.734375 17.65625 -23.992188 19.53125 -22.515625 C 21.40625 -21.046875 22.34375 -18.945312 22.34375 -16.21875 L 22.34375 -6.1875 C 22.34375 -5.8125 22.347656 -5.457031 22.359375 -5.125 C 22.367188 -4.800781 22.394531 -4.492188 22.4375 -4.203125 L 24.4375 -3.921875 L 24.4375 0 Z M 11.203125 -4.375 C 12.179688 -4.375 13.070312 -4.585938 13.875 -5.015625 C 14.6875 -5.441406 15.320312 -5.976562 15.78125 -6.625 L 15.78125 -10.328125 L 12.4375 -10.328125 C 11.039062 -10.328125 9.984375 -10 9.265625 -9.34375 C 8.546875 -8.695312 8.1875 -7.914062 8.1875 -7 C 8.1875 -6.175781 8.453125 -5.53125 8.984375 -5.0625 C 9.515625 -4.601562 10.253906 -4.375 11.203125 -4.375 Z M 11.203125 -4.375 "/></g></g></g><g fill="#fbfada" fill-opacity="1"><g transform="translate(1036.790087, 507.341801)"><g><path d="M 26.546875 -20.328125 L 24.28125 -20 L 15.34375 3.640625 C 14.644531 5.390625 13.707031 6.851562 12.53125 8.03125 C 11.351562 9.21875 9.582031 9.8125 7.21875 9.8125 C 6.664062 9.8125 6.144531 9.765625 5.65625 9.671875 C 5.175781 9.578125 4.609375 9.453125 3.953125 9.296875 L 4.71875 4.515625 C 4.925781 4.546875 5.140625 4.570312 5.359375 4.59375 C 5.585938 4.625 5.785156 4.640625 5.953125 4.640625 C 7.035156 4.640625 7.867188 4.375 8.453125 3.84375 C 9.035156 3.3125 9.488281 2.648438 9.8125 1.859375 L 10.546875 0.015625 L 2.84375 -19.96875 L 0.578125 -20.328125 L 0.578125 -24.28125 L 12.46875 -24.28125 L 12.46875 -20.328125 L 9.765625 -19.875 L 13.078125 -10.1875 L 13.421875 -8.4375 L 13.546875 -8.421875 L 17.390625 -19.875 L 14.65625 -20.328125 L 14.65625 -24.28125 L 26.546875 -24.28125 Z M 26.546875 -20.328125 "/></g></g></g></svg>